<?xml version="1.0" encoding="UTF-8"?>
<svg version="1.1" xmlns="http://www.w3.org/2000/svg" width="512" height="512">
<path d="M0 0 C7.06288701 6.89642166 12.00340489 15.97690149 12.484375 25.95703125 C12.49775824 27.86748852 12.44318882 29.77821312 12.375 31.6875 C13.385625 31.77 14.39625 31.8525 15.4375 31.9375 C21.51536341 32.85653177 25.73464793 35.55655324 29.5625 40.25 C38.96168018 53.83494842 38.67781808 70.65909296 38.5 86.5 C38.48993897 88.07877029 38.4808187 89.65754687 38.47265625 91.23632812 C38.45091564 95.05354453 38.41656265 98.87045009 38.375 102.6875 C38.99826172 102.98084229 39.62152344 103.27418457 40.26367188 103.57641602 C46.70397351 106.9656173 50.55799101 114.94035753 52.71484375 121.59765625 C54.823009 131.46486756 54.19976786 140.79446097 49.375 149.6875 C48.818125 150.71875 48.26125 151.75 47.6875 152.8125 C39.35224827 163.17524539 30.16450331 167.21211226 17.375 169.6875 C17.1790625 170.656875 16.983125 171.62625 16.78125 172.625 C12.02762263 194.53362156 0.60377115 211.83630496 -17.83203125 224.97265625 C-20.625 226.6875 -20.625 226.6875 -22.625 226.6875 C-22.39528802 229.23246689 -22.14201591 231.7713986 -21.875 234.3125 C-21.813125 235.02535156 -21.75125 235.73820313 -21.6875 236.47265625 C-21.01443771 242.58630537 -19.00831751 246.51142749 -14.37890625 250.73828125 C-13.47011719 251.38152344 -12.56132812 252.02476562 -11.625 252.6875 C-11.0666748 253.09274902 -10.50834961 253.49799805 -9.93310547 253.91552734 C3.43459212 263.13899893 16.36429396 263.7688281 32.05883789 263.5769043 C32.8258049 263.57007629 33.59277191 263.56324829 34.38298035 263.55621338 C35.82812472 263.53753974 37.27318792 263.50330462 38.71748352 263.45037842 C43.36635199 263.36492954 46.43051527 264.23452705 50.375 266.6875 C51.52734375 268.58984375 51.52734375 268.58984375 52.3125 270.625 C54.12202935 273.85042731 55.12454462 274.59639834 58.671875 275.88671875 C60.63682207 276.35428146 62.60206546 276.82127365 64.57397461 277.25854492 C74.32729127 279.46443968 81.72586676 284.40911591 87.375 292.6875 C90.99123767 299.37974471 92.44450548 305.26314564 92.89990234 312.84375 C92.96612557 313.92051577 92.96612557 313.92051577 93.03368664 315.01903439 C93.17970285 317.40831972 93.32032826 319.79789084 93.4609375 322.1875 C93.56323697 323.87962219 93.66585889 325.57172492 93.76878357 327.2638092 C94.04367811 331.79975465 94.31381171 336.33597149 94.58276749 340.87227249 C94.80545982 344.62112232 95.03046201 348.36983199 95.25548267 352.11854267 C95.7596343 360.5174783 96.26033202 368.91661362 96.75830078 377.31591797 C97.21338042 384.99076464 97.67543199 392.66515417 98.14276123 400.33926392 C98.43041177 405.07404104 98.71379733 409.80906496 98.9956665 414.54418945 C99.12164255 416.64942827 99.24915715 418.7545757 99.37835693 420.85961914 C99.95689785 430.31546574 100.4860454 439.77233817 100.63671875 449.24609375 C100.65740921 449.9312355 100.67809967 450.61637726 100.69941711 451.32228088 C100.72921802 456.90485153 99.11339973 459.69651002 95.53139496 463.79898167 C90.58384773 466.7591732 85.73727527 466.23461452 80.07653809 466.18870544 C78.81397611 466.19423984 77.55141414 466.19977424 76.25059271 466.20547634 C72.74830173 466.22024173 69.24645987 466.21004372 65.7441833 466.19573963 C61.9663399 466.18463972 58.18856001 466.19656916 54.41072083 466.20558167 C47.01082081 466.21952287 39.61109131 466.2119515 32.2111994 466.19690608 C23.59590799 466.18005554 14.98065918 466.18325504 6.36535639 466.18700016 C-9.00532424 466.19288036 -24.37592298 466.17870094 -39.74658203 466.15405273 C-54.66555857 466.13013149 -69.5844257 466.12304827 -84.50341797 466.13354492 C-100.74453775 466.1449513 -116.9856069 466.14688766 -133.22672606 466.13244683 C-134.95817279 466.13092097 -136.68961954 466.12940061 -138.42106628 466.12788582 C-139.69896364 466.1267491 -139.69896364 466.1267491 -141.00267711 466.12558941 C-147.00967101 466.12084442 -153.01664231 466.12269955 -159.02363586 466.12695122 C-166.34297451 466.13187523 -173.66220966 466.1259054 -180.98152459 466.10605692 C-184.71682 466.09617753 -188.45195773 466.0910867 -192.18726158 466.09894943 C-196.23383691 466.10729318 -200.27999108 466.09244086 -204.32653809 466.07518005 C-206.10303041 466.08419512 -206.10303041 466.08419512 -207.91541147 466.09339231 C-208.99865245 466.08495237 -210.08189343 466.07651243 -211.1979599 466.06781673 C-212.59904944 466.06627304 -212.59904944 466.06627304 -214.02844381 466.06469816 C-218.13712302 465.46783596 -220.7870312 463.69199126 -223.42007446 460.53570557 C-225.04036687 456.70565489 -225.00337086 453.19838205 -224.90380859 449.11621094 C-224.89265203 448.24734127 -224.88149548 447.3784716 -224.87000084 446.48327255 C-224.65136812 434.25193534 -223.88447871 422.03775824 -223.1640625 409.828125 C-223.01156419 407.18220927 -222.85941559 404.53627525 -222.70761108 401.89031982 C-222.39055853 396.38024859 -222.06878105 390.87046888 -221.74414062 385.36083984 C-221.37163474 379.03772674 -221.00714377 372.71418922 -220.64681208 366.39037156 C-220.29615081 360.24022044 -219.93936373 354.09043819 -219.58002853 347.94078827 C-219.42939403 345.35281046 -219.28029301 342.76474288 -219.13283157 340.17658234 C-216.5599506 295.19490055 -216.5599506 295.19490055 -205.7578125 285.28125 C-199.4976142 280.60329962 -192.82278739 277.798184 -185.1875 276.3125 C-181.06758038 275.45535214 -181.06758038 275.45535214 -177.9375 272.8359375 C-176.66485697 270.74272496 -176.66485697 270.74272496 -175.78515625 268.625 C-174.13814929 265.87444292 -172.52297774 265.06587159 -169.625 263.6875 C-166.93868613 263.49591849 -164.48843546 263.45546954 -161.81640625 263.5625 C-160.25859973 263.58806471 -158.70072842 263.60989425 -157.14282227 263.62841797 C-156.33273712 263.64016052 -155.52265198 263.65190308 -154.6880188 263.66400146 C-138.31976468 263.81782154 -123.89289772 262.40381525 -110.625 251.6875 C-103.15989156 244.33029459 -102.32401728 236.86004093 -101.625 226.6875 C-102.35074219 226.43226563 -103.07648438 226.17703125 -103.82421875 225.9140625 C-119.46933982 219.0625032 -130.82525997 202.34988694 -137.0625 187 C-139.33759109 180.97510502 -140.8543212 175.07881901 -141.625 168.6875 C-142.90375 168.605 -144.1825 168.5225 -145.5 168.4375 C-156.90458533 167.0810861 -165.20628144 161.56559241 -172.29296875 152.5703125 C-178.06109315 143.87583759 -178.82236546 133.85635738 -177.625 123.6875 C-175.545595 115.29250677 -171.14199183 108.38447299 -164.625 102.6875 C-163.965 102.6875 -163.305 102.6875 -162.625 102.6875 C-162.64071045 101.61491943 -162.6564209 100.54233887 -162.67260742 99.43725586 C-162.72770722 95.38362408 -162.76163501 91.33002391 -162.78979492 87.27612305 C-162.80470213 85.53550617 -162.82503508 83.79492562 -162.85131836 82.05444336 C-163.2295535 56.32703759 -157.24440994 32.11479022 -139.04638672 13.10058594 C-137.58617123 11.61507538 -136.11080434 10.1473676 -134.625 8.6875 C-133.93535156 7.99914062 -133.24570313 7.31078125 -132.53515625 6.6015625 C-118.378048 -6.62770145 -100.42054009 -12.638416 -81.625 -15.3125 C-80.98071045 -15.4060376 -80.3364209 -15.4995752 -79.67260742 -15.59594727 C-52.64003157 -19.09672728 -21.83909932 -18.13425212 0 0 Z " fill="#030303" transform="translate(238.625,46.3125)"/>
<path d="M0 0 C1.26967122 -0.00596161 1.26967122 -0.00596161 2.56499237 -0.01204365 C5.41181894 -0.02169667 8.25815228 -0.0098305 11.10496521 0.00190735 C13.14154751 -0.00051961 15.17812862 -0.00423799 17.21470642 -0.00915527 C22.75380592 -0.01858047 28.29272923 -0.00912545 33.831815 0.00417686 C39.61914942 0.01546964 45.40647488 0.01138557 51.19381714 0.00942993 C60.91276438 0.00854634 70.63164194 0.01964161 80.35057068 0.03804016 C91.60059958 0.05921471 102.85052642 0.06271678 114.10057122 0.0564782 C124.90691452 0.05079161 135.71322175 0.05642149 146.51955986 0.06765175 C151.12599795 0.07230648 155.73241403 0.07316783 160.33885384 0.0710659 C165.75852538 0.06918786 171.17809245 0.07724946 176.59774017 0.0931263 C178.59163163 0.09738339 180.58553365 0.0982102 182.57942772 0.0954361 C185.29151203 0.09223414 188.00328024 0.10124555 190.71533203 0.11352539 C191.51288629 0.10974607 192.31044054 0.10596674 193.13216311 0.10207289 C198.56584513 0.14589274 198.56584513 0.14589274 200.79417419 2.3742218 C201.04306316 5.00698185 201.04306316 5.00698185 201.04141235 8.41647339 C201.04560684 9.70514313 201.04980133 10.99381287 201.05412292 12.3215332 C201.04863904 13.75779799 201.04295604 15.19406203 201.03709412 16.63032532 C201.03816654 18.13636864 201.04010463 19.64241155 201.04284668 21.14845276 C201.04770413 25.2454188 201.04002848 29.34227633 201.02989364 33.43922925 C201.02112915 37.71890473 201.02287026 41.99857665 201.02325439 46.27825928 C201.02231711 53.46513187 201.01362401 60.6519623 200.99998474 67.83882141 C200.98425257 76.15946341 200.9789868 84.48005923 200.97972029 92.80071503 C200.98032969 100.79160809 200.97523273 108.78248603 200.96692848 116.77337456 C200.9633891 120.18046626 200.9615643 123.58755262 200.96103477 126.99464607 C200.96003352 131.00254138 200.95395483 135.0103976 200.94386864 139.01828003 C200.94093682 140.49334919 200.93971964 141.96842284 200.94029617 143.4434948 C200.9407835 145.44865202 200.93453775 147.4538076 200.92788696 149.45895386 C200.92621112 150.58370904 200.92453527 151.70846422 200.92280865 152.86730289 C200.79417419 155.3742218 200.79417419 155.3742218 199.79417419 156.3742218 C197.10545162 156.4765028 194.44226627 156.51308298 191.75292969 156.50793457 C190.90002395 156.51020013 190.04711821 156.51246568 189.16836685 156.51479989 C186.28784451 156.52116994 183.40736885 156.52030862 180.52684021 156.51948547 C178.47085 156.52247509 176.41486036 156.52587715 174.35887146 156.52966309 C168.75773236 156.53852725 163.15660851 156.54084221 157.55546308 156.54147887 C152.88815331 156.54242591 148.22084713 156.54610182 143.55353874 156.54965097 C132.5470788 156.55780465 121.54062704 156.56023436 110.53416443 156.55952454 C99.16035407 156.55892344 87.7865911 156.56947942 76.41279274 156.5852682 C66.66504904 156.59832018 56.91732086 156.60370942 47.16956848 156.60306913 C41.34003438 156.60281345 35.51054236 156.60570256 29.68101692 156.61624718 C24.20065063 156.62588891 18.72036698 156.62603448 13.23999786 156.61873055 C11.22352669 156.6176798 9.20705048 156.62007634 7.190588 156.626091 C4.44776047 156.63374513 1.70522309 156.62921019 -1.03759766 156.62145996 C-1.84429805 156.62660352 -2.65099844 156.63174709 -3.4821443 156.63704652 C-8.97755461 156.602493 -8.97755461 156.602493 -11.20582581 154.3742218 C-11.4603014 151.77828312 -11.4603014 151.77828312 -11.46652222 148.4213562 C-11.47360703 147.15240509 -11.48069183 145.88345398 -11.48799133 144.5760498 C-11.4856973 143.16184962 -11.48318757 141.74764978 -11.48048401 140.33345032 C-11.48482918 138.85035444 -11.49001168 137.3672608 -11.49597168 135.88417053 C-11.50939418 131.84906708 -11.50993674 127.81405711 -11.50740838 123.77893567 C-11.50634083 120.41397592 -11.5112165 117.04903526 -11.5160138 113.68407959 C-11.5271203 105.74736451 -11.52754003 97.81069676 -11.52149963 89.87397766 C-11.51545817 81.67828748 -11.52777256 73.4827689 -11.5490697 65.287108 C-11.56666637 58.25776845 -11.57269012 51.22848362 -11.56943196 44.19912285 C-11.5676158 39.99765641 -11.57028817 35.79631236 -11.5841465 31.5948658 C-11.59668883 27.64434508 -11.59481513 23.69409248 -11.58173561 19.74357605 C-11.57936236 18.29191944 -11.58213119 16.84024417 -11.59035873 15.38860893 C-11.60076379 13.41045402 -11.59095789 11.43222324 -11.58004761 9.45407104 C-11.58021535 8.34590814 -11.58038309 7.23774523 -11.58055592 6.09600163 C-11.20582581 3.3742218 -11.20582581 3.3742218 -10.19530106 1.51762009 C-6.97819387 -0.33132718 -3.60968144 -0.03346917 0 0 Z " fill="#ECF3FB" transform="translate(81.20582580566406,319.6257781982422)"/>
<path d="M0 0 C2.72627234 1.27254915 5.10621909 2.96003251 7.5625 4.6875 C24.93459664 16.21889056 45.59953343 20.00816235 66.12890625 16.16015625 C77.88273977 13.5206989 88.30850898 8.638234 98.1953125 1.78515625 C101.78423981 -0.49916099 103.81642779 -0.60851959 108 0 C113.91882847 3.03159507 117.53124563 10.55744114 119.56806946 16.71824646 C120.16775779 19.88621176 120.13573899 22.94016899 120.14526367 26.16430664 C120.14862228 26.87873932 120.1519809 27.593172 120.15544128 28.32925415 C120.16493274 30.68957261 120.16689401 33.04981989 120.16796875 35.41015625 C120.17118445 37.05960621 120.17454875 38.70905588 120.17805481 40.35850525 C120.18404289 43.81933248 120.18589522 47.28013475 120.18530273 50.7409668 C120.18520156 55.14986032 120.19880899 59.55859119 120.21607494 63.96744633 C120.22726538 67.37778947 120.22921973 70.78809429 120.22869301 74.1984539 C120.22986426 75.82215366 120.23423736 77.4458547 120.24202538 79.06953621 C120.34026177 101.68123636 115.26995737 120.77686977 99.4375 137.65234375 C91.68748312 145.11670296 82.95904958 150.048387 73 154 C72.15308594 154.34160156 71.30617188 154.68320312 70.43359375 155.03515625 C58.90244301 158.9149644 43.60366694 158.46801324 32 155 C30.90945312 154.70802734 30.90945312 154.70802734 29.796875 154.41015625 C14.01865623 149.7484098 -1.19343363 138.49895794 -9.3046875 124.0859375 C-13.04825002 117.0006875 -16.16482834 109.82602128 -18 102 C-18.17109787 101.45631271 -18.34219574 100.91262543 -18.51847839 100.35246277 C-19.19946841 97.02550167 -19.16436525 93.72649494 -19.17700195 90.3449707 C-19.18685875 89.19535103 -19.18685875 89.19535103 -19.19691467 88.02250671 C-19.2165972 85.4902638 -19.22830017 82.95808011 -19.23828125 80.42578125 C-19.24235678 79.55807791 -19.2464323 78.69037457 -19.25063133 77.79637718 C-19.27147248 73.20190038 -19.28578157 68.60745326 -19.29516602 64.01293945 C-19.30621492 59.28309595 -19.34060277 54.5537249 -19.38033772 49.82404804 C-19.40656715 46.17359075 -19.41486354 42.52324487 -19.41844749 38.87270164 C-19.4232986 37.13009647 -19.4348702 35.38749578 -19.45348549 33.64498329 C-19.62846863 16.17709481 -19.62846863 16.17709481 -15 9 C-14.19175781 7.71609375 -14.19175781 7.71609375 -13.3671875 6.40625 C-12.87476562 5.7771875 -12.38234375 5.148125 -11.875 4.5 C-11.37742187 3.8503125 -10.87984375 3.200625 -10.3671875 2.53125 C-7.39047374 -0.80266941 -4.24607221 -0.39227672 0 0 Z " fill="#F7CEB3" transform="translate(126,116)"/>
<path d="M0 0 C1.55849571 1.33476387 3.10125719 2.68819606 4.625 4.0625 C5.30949219 4.65417969 5.99398437 5.24585938 6.69921875 5.85546875 C20.03681031 18.14491952 28.17839644 36.28072393 28.9609375 54.32421875 C29.36442343 78.37110282 22.28366431 97.77009644 5.546875 115.23046875 C-9.44804571 129.58671692 -29.45786313 135.59021095 -49.859375 135.2734375 C-66.7342252 134.69179373 -81.33496696 128.56282121 -94.375 118.0625 C-95.00792969 117.59328125 -95.64085937 117.1240625 -96.29296875 116.640625 C-109.84795547 106.09441107 -118.1557078 88.31573794 -120.9296875 71.75 C-123.44991629 50.88073704 -118.95400091 31.10501737 -106.375 14.0625 C-94.49015657 -0.97231006 -77.75793333 -11.96405237 -58.49609375 -14.70605469 C-37.23810038 -17.02564236 -17.1628939 -13.31694054 0 0 Z " fill="#6FD4F6" transform="translate(468.375,217.9375)"/>
<path d="M0 0 C13.83544509 13.04597604 22.77569474 30.74495332 23.69140625 49.78125 C24.28481119 70.0056302 20.04644138 89.62824077 5.9375 104.875 C4.1169779 106.74786443 2.25504217 108.5601616 0.375 110.375 C-0.33140625 111.11234375 -1.0378125 111.8496875 -1.765625 112.609375 C-14.90978715 125.55286292 -33.66303689 130.69574166 -51.625 130.875 C-73.12842088 130.67678876 -90.50579174 122.98140533 -106.0234375 108.0703125 C-120.88331182 92.60184265 -127.17619914 72.78154683 -126.83984375 51.57421875 C-126.12215212 32.11630604 -117.025633 15.02254583 -103.625 1.375 C-102.94824219 0.67375 -102.27148438 -0.0275 -101.57421875 -0.75 C-73.48665604 -27.83254634 -28.32670893 -24.27441584 0 0 Z " fill="#F58CA3" transform="translate(474.625,62.625)"/>
<path d="M0 0 C14.71210858 13.77887781 23.06175649 33.08685243 23.72509766 53.11352539 C23.90504367 72.61649748 18.4899081 90.56866725 5.25 105.3125 C4.52167969 106.13363281 3.79335938 106.95476562 3.04296875 107.80078125 C-9.07819754 120.70522161 -26.55629548 129.95962854 -44.47265625 130.6484375 C-66.92988009 130.97124576 -85.62483007 126.76107987 -102.75 111.3125 C-103.44609375 110.70921875 -104.1421875 110.1059375 -104.859375 109.484375 C-118.22673229 97.15324696 -126.04591742 78.12927599 -127.03515625 60.13671875 C-127.66673057 40.24663905 -121.64750778 21.25839583 -108.4375 6.1875 C-106.89157818 4.54672062 -105.32943898 2.92104087 -103.75 1.3125 C-103.07324219 0.61125 -102.39648438 -0.09 -101.69921875 -0.8125 C-73.20468511 -28.28745523 -28.89582948 -23.62360796 0 0 Z " fill="#B295F5" transform="translate(473.75,381.6875)"/>
<path d="M0 0 C0.99 0.30035156 1.98 0.60070313 3 0.91015625 C13.78980697 4.70961572 20.95646186 11.8812097 25.99609375 22 C27.88939889 26.49320264 28.46495382 30.85692856 28.7890625 35.703125 C28.99338492 37.92796909 29.27511232 39.88574426 30 42 C32.88060448 43.60974956 35.20998742 44.02249865 38.5 44.375 C42.61936724 45.11060129 44.13147359 45.97641811 47 49 C51.77761343 56.48160991 53.3237832 64.47672654 53.1953125 73.21875 C53.1924826 73.96209595 53.18965271 74.70544189 53.18673706 75.47131348 C53.17566157 77.81438217 53.15058228 80.15704947 53.125 82.5 C53.11495381 84.10155693 53.10583085 85.70311993 53.09765625 87.3046875 C53.0757639 91.2032765 53.04132386 95.10157052 53 99 C49.7 98.67 46.4 98.34 43 98 C42.90203125 97.23816406 42.8040625 96.47632813 42.703125 95.69140625 C41.04029066 84.20924842 36.92376704 72.83384852 27.9375 64.9375 C22.62679921 61.66759252 16.94825005 61.6689676 11 63 C7.51115756 64.6672106 4.36356713 66.81999148 1.17871094 69 C-3.59319191 72.24094604 -8.26127674 74.60472015 -13.6875 76.5625 C-14.34661377 76.8011377 -15.00572754 77.03977539 -15.68481445 77.28564453 C-31.63291148 82.82080264 -50.34953968 81.28655296 -65.6328125 74.3515625 C-71.43225292 71.32634187 -76.74866059 67.88142478 -82 64 C-87.49322224 62.16892592 -93.88520245 61.72052087 -99.3203125 63.953125 C-109.96255252 71.21488878 -113.093923 82.49279874 -115.37109375 94.44921875 C-115.57863281 95.62097656 -115.78617188 96.79273438 -116 98 C-120.95 98.495 -120.95 98.495 -126 99 C-126.10049676 94.29018051 -126.1722162 89.58101385 -126.21972656 84.87036133 C-126.23957606 83.27519838 -126.26666504 81.68010549 -126.30175781 80.08520508 C-126.60326774 66.00735191 -124.96213153 53.34778062 -118.25 40.6875 C-117.90710938 40.02363281 -117.56421875 39.35976562 -117.2109375 38.67578125 C-114.1219829 32.88117298 -110.43557181 27.84757156 -106 23 C-105.40960938 22.31808594 -104.81921875 21.63617188 -104.2109375 20.93359375 C-90.46077045 5.98394404 -71.54288302 -0.26163232 -52 -3 C-50.94425781 -3.18304688 -49.88851562 -3.36609375 -48.80078125 -3.5546875 C-32.42647515 -5.47315707 -15.78120631 -4.83132269 0 0 Z " fill="#5A5C5F" transform="translate(213,44)"/>
<path d="M0 0 C1.2650386 -0.00960754 2.53007721 -0.01921509 3.83345032 -0.02911377 C5.22124044 -0.03396205 6.60903265 -0.03824081 7.99682617 -0.04199219 C9.4168854 -0.04774432 10.8369446 -0.05350205 12.25700378 -0.05926514 C15.23709475 -0.06977644 18.21715873 -0.07561796 21.19726562 -0.07910156 C25.01052416 -0.08458053 28.82342457 -0.10859479 32.63657093 -0.13707352 C35.57143687 -0.15572686 38.50621711 -0.16090696 41.44113731 -0.16243744 C42.84652345 -0.16545945 44.25190824 -0.17347277 45.6572361 -0.18662262 C47.62688728 -0.20373421 49.5966862 -0.19995067 51.56640625 -0.1953125 C53.24613274 -0.20078094 53.24613274 -0.20078094 54.95979309 -0.20635986 C58.38828163 0.21118567 60.22663128 1.10186652 62.97729492 3.16113281 C65.41249863 6.81393837 65.27307107 9.54205207 65.26782227 13.76611328 C65.27453949 14.53880554 65.28125671 15.3114978 65.28817749 16.10760498 C65.30719101 18.66457533 65.31108341 21.22128365 65.31323242 23.77832031 C65.31965826 25.55567534 65.32638646 27.33302929 65.33340454 29.11038208 C65.34538586 32.83777316 65.34908451 36.56507149 65.34790039 40.29248047 C65.34769721 45.0664985 65.37499477 49.83992119 65.40944481 54.61379814 C65.43169394 58.28556036 65.43573854 61.95717889 65.43468094 65.62900162 C65.43704007 67.38885677 65.44588119 69.1487157 65.46134567 70.90850449 C65.48096501 73.37188 65.47518423 75.83396655 65.46313477 78.29736328 C65.47437378 79.02273285 65.48561279 79.74810242 65.49719238 80.49545288 C65.43727785 85.32112588 64.40282151 87.77423492 60.97729492 91.16113281 C58.19196185 92.55379935 55.88740666 92.31152623 52.77099609 92.33813477 C51.46591599 92.35097 50.16083588 92.36380524 48.81620789 92.37702942 C47.38423033 92.38519694 45.9522485 92.39264065 44.52026367 92.39941406 C43.44015235 92.40552735 43.44015235 92.40552735 42.3382206 92.41176414 C38.52642732 92.4326259 34.71467005 92.44692672 30.90283203 92.45629883 C26.96840653 92.46735942 23.03454722 92.50175414 19.10032177 92.54147053 C16.07280944 92.56763552 13.04543199 92.57599054 10.01781654 92.57958031 C8.56775402 92.58444719 7.11769757 92.59606427 5.66774559 92.6146183 C3.63589504 92.63900078 1.60376916 92.63562582 -0.42822266 92.63110352 C-1.5835701 92.63696976 -2.73891754 92.642836 -3.92927551 92.64888 C-7.70217842 92.0539989 -9.34880964 90.84470493 -12.02270508 88.16113281 C-13.19855559 84.63358129 -13.19351774 81.42763966 -13.21557617 77.75561523 C-13.22375366 77.00403641 -13.23193115 76.25245758 -13.24035645 75.47810364 C-13.26516815 72.99094432 -13.28171511 70.5038419 -13.29614258 68.01660156 C-13.30146626 67.16630182 -13.30678993 66.31600208 -13.31227493 65.43993568 C-13.3389875 60.93970263 -13.35836888 56.43949714 -13.37280273 51.93920898 C-13.38614561 48.21727949 -13.41400676 44.49589779 -13.45483398 40.77416992 C-13.50416238 36.277293 -13.52892377 31.78091317 -13.53602982 27.28377724 C-13.54273963 25.57216274 -13.55795482 23.86055921 -13.58192062 22.14909935 C-13.61359469 19.75042461 -13.61360659 17.35366354 -13.60620117 14.95483398 C-13.62260651 14.25176117 -13.63901184 13.54868835 -13.65591431 12.8243103 C-13.58541286 7.22879165 -11.83546284 4.95453932 -8.02270508 1.16113281 C-5.27949365 -0.2104729 -3.07050656 0.01876217 0 0 Z " fill="#030406" transform="translate(396.022705078125,390.8388671875)"/>
<path d="M0 0 C1.55849571 1.33476387 3.10125719 2.68819606 4.625 4.0625 C5.30949219 4.65417969 5.99398437 5.24585938 6.69921875 5.85546875 C20.03681031 18.14491952 28.17839644 36.28072393 28.9609375 54.32421875 C29.36442343 78.37110282 22.28366431 97.77009644 5.546875 115.23046875 C-9.44804571 129.58671692 -29.45786313 135.59021095 -49.859375 135.2734375 C-66.7342252 134.69179373 -81.33496696 128.56282121 -94.375 118.0625 C-95.00792969 117.59328125 -95.64085937 117.1240625 -96.29296875 116.640625 C-109.84795547 106.09441107 -118.1557078 88.31573794 -120.9296875 71.75 C-123.44991629 50.88073704 -118.95400091 31.10501737 -106.375 14.0625 C-94.49015657 -0.97231006 -77.75793333 -11.96405237 -58.49609375 -14.70605469 C-37.23810038 -17.02564236 -17.1628939 -13.31694054 0 0 Z M-86.375 9.0625 C-87.2309375 9.743125 -88.086875 10.42375 -88.96875 11.125 C-99.86934917 20.31827641 -109.26241579 35.097923 -110.61206055 49.61181641 C-111.57845292 69.95710427 -108.55744622 86.47704501 -95.5625 102.8125 C-89.38598101 109.47281944 -82.36476079 114.33609724 -74.3125 118.4375 C-73.34014404 118.93817993 -73.34014404 118.93817993 -72.34814453 119.44897461 C-58.75147197 126.08353667 -40.86269619 126.47624856 -26.5625 121.875 C-10.14394917 116.1355289 3.64203016 105.27973389 11.58886719 89.60205078 C19.11387556 73.78985474 21.34002481 57.16642248 15.8828125 40.375 C9.16123037 22.6734421 -2.25407185 8.66079078 -19.6015625 0.5703125 C-42.2390894 -8.85704941 -67.01327849 -6.52745758 -86.375 9.0625 Z " fill="#010202" transform="translate(468.375,217.9375)"/>
<path d="M0 0 C13.83544509 13.04597604 22.77569474 30.74495332 23.69140625 49.78125 C24.28481119 70.0056302 20.04644138 89.62824077 5.9375 104.875 C4.1169779 106.74786443 2.25504217 108.5601616 0.375 110.375 C-0.33140625 111.11234375 -1.0378125 111.8496875 -1.765625 112.609375 C-14.90978715 125.55286292 -33.66303689 130.69574166 -51.625 130.875 C-73.12842088 130.67678876 -90.50579174 122.98140533 -106.0234375 108.0703125 C-120.88331182 92.60184265 -127.17619914 72.78154683 -126.83984375 51.57421875 C-126.12215212 32.11630604 -117.025633 15.02254583 -103.625 1.375 C-102.94824219 0.67375 -102.27148438 -0.0275 -101.57421875 -0.75 C-73.48665604 -27.83254634 -28.32670893 -24.27441584 0 0 Z M-94.625 7.375 C-95.64013672 8.24898437 -95.64013672 8.24898437 -96.67578125 9.140625 C-107.68182839 19.31320449 -115.10908283 33.69689481 -116.06640625 48.69140625 C-116.75392818 68.58646437 -112.0524554 86.23634508 -98.16796875 101.11987305 C-85.04730738 114.32231752 -68.6243801 120.17877575 -50.25 120.75 C-33.28202845 120.45595768 -17.25417044 113.20150594 -5.31640625 101.26171875 C1.98387598 93.43166278 6.83940481 85.47287415 10.375 75.375 C10.85453125 74.10269531 10.85453125 74.10269531 11.34375 72.8046875 C16.50508495 57.17731224 13.41773752 40.8735607 6.75 26.25 C-2.07764188 9.67610237 -15.69219938 -0.26623053 -32.875 -6.875 C-54.81458994 -12.85852453 -77.64155879 -7.53728984 -94.625 7.375 Z " fill="#020101" transform="translate(474.625,62.625)"/>
<path d="M0 0 C14.71210858 13.77887781 23.06175649 33.08685243 23.72509766 53.11352539 C23.90504367 72.61649748 18.4899081 90.56866725 5.25 105.3125 C4.52167969 106.13363281 3.79335938 106.95476562 3.04296875 107.80078125 C-9.07819754 120.70522161 -26.55629548 129.95962854 -44.47265625 130.6484375 C-66.92988009 130.97124576 -85.62483007 126.76107987 -102.75 111.3125 C-103.44609375 110.70921875 -104.1421875 110.1059375 -104.859375 109.484375 C-118.22673229 97.15324696 -126.04591742 78.12927599 -127.03515625 60.13671875 C-127.66673057 40.24663905 -121.64750778 21.25839583 -108.4375 6.1875 C-106.89157818 4.54672062 -105.32943898 2.92104087 -103.75 1.3125 C-103.07324219 0.61125 -102.39648438 -0.09 -101.69921875 -0.8125 C-73.20468511 -28.28745523 -28.89582948 -23.62360796 0 0 Z M-75.75 -4.6875 C-76.636875 -4.31367188 -77.52375 -3.93984375 -78.4375 -3.5546875 C-84.53672883 -0.74681081 -89.68592815 2.92853943 -94.75 7.3125 C-95.76900391 8.18841797 -95.76900391 8.18841797 -96.80859375 9.08203125 C-107.93815147 19.38717729 -115.42691866 33.90238593 -116.12109375 49.09765625 C-116.51689776 69.21024561 -111.73152714 86.91169991 -97.625 102 C-83.60814889 115.32436613 -66.51639339 121.03165047 -47.57421875 120.62109375 C-31.20598408 119.84655133 -16.02683977 111.91385314 -4.75 100.3125 C-4.11578125 99.69890625 -3.4815625 99.0853125 -2.828125 98.453125 C9.1488374 86.05219933 13.68769304 68.15720911 13.5234375 51.38671875 C12.73476816 35.03159063 4.54469375 19.85938787 -6.75 8.3125 C-13.10780127 2.86694547 -20.03549228 -1.45201243 -27.75 -4.6875 C-28.65492188 -5.08066406 -29.55984375 -5.47382813 -30.4921875 -5.87890625 C-44.63833384 -11.15156079 -61.93348699 -10.69297298 -75.75 -4.6875 Z " fill="#010102" transform="translate(473.75,381.6875)"/>
<path d="M0 0 C76.89 0 153.78 0 233 0 C231.93447307 7.45868849 231.80731527 8.19268473 227 13 C223.18735362 15.68454685 218.94936033 15.28447789 214.47305298 15.26742554 C213.16958154 15.27422221 213.16958154 15.27422221 211.83977735 15.28115618 C208.92259076 15.29383512 206.00559003 15.29217756 203.08837891 15.29052734 C200.99902607 15.29651039 198.90967546 15.30331542 196.82032776 15.31088257 C191.14057904 15.32857209 185.46089056 15.33323918 179.78111696 15.33451414 C175.04195434 15.33641186 170.30280579 15.34376789 165.56364858 15.35085833 C154.3838965 15.36715097 143.20417665 15.37202647 132.02441406 15.37060547 C120.48639964 15.36940367 108.94857217 15.39051128 97.41060507 15.4220928 C87.50901744 15.44823088 77.60749096 15.45897381 67.70586908 15.45769465 C61.79012953 15.45718431 55.87455609 15.46290743 49.95885086 15.48405075 C44.39545595 15.50339158 38.8323863 15.50358595 33.26898003 15.48901749 C31.22676939 15.48692316 29.18453862 15.49166726 27.14236259 15.5037384 C24.3548291 15.51914848 21.5684231 15.50991078 18.78091431 15.49447632 C17.56806462 15.50990701 17.56806462 15.50990701 16.33071291 15.52564943 C11.10132299 15.46164217 8.15664522 14.44201411 4 11 C0.61029971 6.80747596 0 5.5540492 0 0 Z " fill="#C6D6E4" transform="translate(60,487)"/>
<path d="M0 0 C10.79421995 1.96258544 17.70499497 3.73065206 24.7109375 11.86328125 C29.16261198 19.24226895 29.57492167 26.40112572 29.9140625 34.828125 C29.97403412 36.0535199 30.03400574 37.27891479 30.09579468 38.54144287 C30.28438771 42.44383221 30.45527247 46.34674893 30.625 50.25 C30.80564573 54.13871319 30.9899439 58.02723485 31.17562866 61.91571045 C31.28959635 64.32866249 31.40003144 66.74178503 31.5062561 69.15509033 C31.79480711 75.54780924 32.20407867 81.90932367 32.79450989 88.28161621 C33.14637532 92.93636706 33.10552498 97.58502571 33.0625 102.25 C33.041875 105.4675 33.02125 108.685 33 112 C22.11 112 11.22 112 0 112 C0 75.04 0 38.08 0 0 Z " fill="#386DBA" transform="translate(292,332)"/>
<path d="M0 0 C0 36.63 0 73.26 0 111 C-10.56 111 -21.12 111 -32 111 C-32.17380396 97.5301928 -31.88428483 84.29405469 -30.84985352 70.86572266 C-30.29493179 63.57287543 -29.85068927 56.29076986 -29.52734375 48.984375 C-29.48822876 48.13033585 -29.44911377 47.27629669 -29.40881348 46.39637756 C-29.175033 41.29186258 -29.175033 41.29186258 -28.96710205 36.18624878 C-28.87632869 33.81492045 -28.76953937 31.4447513 -28.66015625 29.07421875 C-28.63823715 28.37637268 -28.61631805 27.67852661 -28.59373474 26.95953369 C-28.18919108 18.87987231 -25.43780501 12.65949206 -19.96875 6.76171875 C-14.01506223 1.43411322 -7.82178775 0 0 0 Z " fill="#396FBD" transform="translate(60,333)"/>
<path d="M0 0 C0.98325508 -0.00744736 0.98325508 -0.00744736 1.9863739 -0.01504517 C4.15913945 -0.02967263 6.33183194 -0.03647033 8.50463867 -0.04199219 C10.01437889 -0.04774394 11.52411908 -0.05350168 13.03385925 -0.05926514 C16.2022638 -0.06977732 19.37064296 -0.0756183 22.5390625 -0.07910156 C26.59444825 -0.0845814 30.64949742 -0.10859728 34.70477772 -0.13707352 C37.82493562 -0.15572105 40.94501287 -0.16090665 44.06522179 -0.16243744 C45.55992151 -0.16546063 47.05461993 -0.17347797 48.54926491 -0.18662262 C50.64377853 -0.20372517 52.73747565 -0.20179299 54.83203125 -0.1953125 C56.02290848 -0.19895813 57.21378571 -0.20260376 58.44075012 -0.20635986 C61.93408357 0.19869843 63.81346646 1.06552253 66.61010742 3.16113281 C68.42226641 6.78545079 67.9232244 10.98217819 67.98510742 14.97363281 C68.04118164 16.32811523 68.04118164 16.32811523 68.09838867 17.70996094 C68.10999023 18.58716797 68.1215918 19.464375 68.13354492 20.36816406 C68.16327393 21.56662964 68.16327393 21.56662964 68.19360352 22.78930664 C67.30928228 26.38394297 65.43304009 27.83175052 62.61010742 30.16113281 C59.37828064 30.78259277 59.37828064 30.78259277 55.68017578 30.77636719 C55.00312088 30.7819162 54.32606598 30.78746521 53.62849426 30.79318237 C51.40158193 30.80494596 49.17671957 30.78074392 46.94995117 30.75488281 C45.39726352 30.75317091 43.84457297 30.75323821 42.29188538 30.75500488 C39.04277783 30.75335361 35.79436191 30.73469035 32.54541016 30.703125 C28.38341401 30.66341421 24.22232177 30.65908459 20.06017208 30.66658783 C16.85591875 30.66965876 13.65186819 30.6575333 10.44766426 30.64045715 C8.91309443 30.6334331 7.37850162 30.6303019 5.84391594 30.63114929 C3.69907028 30.62934919 1.55530334 30.60795268 -0.58935547 30.58105469 C-1.80893448 30.5726355 -3.02851349 30.56421631 -4.28504944 30.55554199 C-7.64474229 30.12875918 -9.03249953 29.55277311 -11.38989258 27.16113281 C-12.72239193 23.16363477 -12.65246824 19.47312059 -12.70239258 15.28613281 C-12.73139648 14.48304687 -12.76040039 13.67996094 -12.7902832 12.85253906 C-12.83408027 8.76256637 -12.72670849 6.69587148 -10.49536133 3.15332031 C-6.98445728 -0.16868537 -4.75606546 0.0273241 0 0 Z " fill="#040405" transform="translate(396.389892578125,76.8388671875)"/>
<path d="M0 0 C1.05574219 0.28875 2.11148438 0.5775 3.19921875 0.875 C18.81896337 4.88803436 38.25673115 7.19591617 53.625 0.9296875 C56 0 56 0 59 0 C59.06058594 0.71285156 59.12117188 1.42570312 59.18359375 2.16015625 C59.26738281 3.11792969 59.35117188 4.07570313 59.4375 5.0625 C59.51484375 6.07183594 59.5921875 7.08117187 59.671875 8.12109375 C59.92165656 11.17274132 59.92165656 11.17274132 61.1875 14.625 C60.94378963 19.01178666 59.63180064 19.71761259 56.4375 22.625 C54.64141397 24.10350172 52.82792558 25.56104885 51 27 C50.21109375 27.89589844 49.4221875 28.79179687 48.609375 29.71484375 C43.99246472 33.54679759 37.61243692 32.92985684 31.90698242 32.92651367 C29.83046394 32.93740577 27.7675057 33.02801577 25.69335938 33.12304688 C18.21680912 33.27966552 13.4794084 32.35154156 7.82421875 27.19140625 C6.20690786 25.46956825 4.59832008 23.73948082 3 22 C2.07292236 21.30769287 1.14584473 20.61538574 0.19067383 19.90209961 C-0.53224854 19.27440674 -1.2551709 18.64671387 -2 18 C-1.90030094 15.10872729 -1.56419432 12.79726598 -1 10 C-0.79390941 8.16866332 -0.6064572 6.3351351 -0.4375 4.5 C-0.35371094 3.6440625 -0.26992187 2.788125 -0.18359375 1.90625 C-0.12300781 1.2771875 -0.06242188 0.648125 0 0 Z " fill="#F6CDB1" transform="translate(147,278)"/>
<path d="M0 0 C11.22 0 22.44 0 34 0 C34.97452037 3.89808149 35.31486787 7.56219376 35.53515625 11.546875 C35.57813339 12.27690735 35.62111053 13.0069397 35.66539001 13.75909424 C35.75539281 15.30218158 35.84353167 16.84537861 35.92993164 18.38867188 C36.06127379 20.72815861 36.19909551 23.06719488 36.33789062 25.40625 C36.42486704 26.91143597 36.51146745 28.41664372 36.59765625 29.921875 C36.63826675 30.611745 36.67887726 31.30161499 36.72071838 32.01239014 C36.8307975 34.00739538 36.91557329 36.00374464 37 38 C37.03133026 38.72981079 37.06266052 39.45962158 37.09494019 40.21154785 C37.14405598 42.14066626 37.07996849 44.0719141 37 46 C35 48 35 48 32.20263672 48.22705078 C31.04006348 48.21657715 29.87749023 48.20610352 28.6796875 48.1953125 C26.79443359 48.18564453 26.79443359 48.18564453 24.87109375 48.17578125 C22.89302734 48.15064453 22.89302734 48.15064453 20.875 48.125 C19.53516279 48.11496983 18.19531848 48.10584404 16.85546875 48.09765625 C13.57013427 48.07402075 10.28515535 48.04107234 7 48 C7.31723022 47.10812988 7.31723022 47.10812988 7.64086914 46.19824219 C9.55807379 40.66327742 11.01733842 35.88684594 10 30 C7.24706945 25.02354862 5.73610502 24.91203501 0 23 C0 15.41 0 7.82 0 0 Z " fill="#F5CCB1" transform="translate(292,454)"/>
<path d="M0 0 C10.89 0 21.78 0 33 0 C33.12375 3.5475 33.2475 7.095 33.375 10.75 C33.42962402 11.86213867 33.48424805 12.97427734 33.54052734 14.12011719 C33.58686886 16.85177518 33.54518305 19.31924134 33 22 C30.1640625 24.453125 30.1640625 24.453125 27 26 C24.26373817 28.88635214 23.58719579 30.79315966 23.625 34.75 C23.61726563 35.54921875 23.60953125 36.3484375 23.6015625 37.171875 C24.1504663 41.06801567 25.53245949 44.35056065 27 48 C23.04903022 48.04939662 19.0981797 48.08571755 15.14697266 48.10986328 C13.1408864 48.12488107 11.13488676 48.15028981 9.12890625 48.17578125 C7.87207031 48.18222656 6.61523438 48.18867188 5.3203125 48.1953125 C4.15773926 48.20578613 2.99516602 48.21625977 1.79736328 48.22705078 C-1 48 -1 48 -3 46 C-3.52688233 36.45966631 -2.33282353 26.87515024 -1.5 17.375 C-1.35508165 15.68623109 -1.21054723 13.99742919 -1.06640625 12.30859375 C-0.71607221 8.20525602 -0.35786922 4.10271498 0 0 Z " fill="#F7CEB2" transform="translate(27,454)"/>
<path d="M0 0 C0.80759766 -0.020625 1.61519531 -0.04125 2.44726562 -0.0625 C7.18542792 -0.09354447 10.35145816 0.14499167 14.1875 3.25 C16.47732938 7.82965877 15.4990665 14.5659544 15.53759766 19.65258789 C15.55414525 21.25397283 15.58142009 22.85528427 15.61962891 24.45629883 C15.67452731 26.76943116 15.69628918 29.08083436 15.7109375 31.39453125 C15.73360687 32.10615921 15.75627625 32.81778717 15.77963257 33.55097961 C15.76343629 37.3804827 15.28577221 39.12026781 12.94995117 42.20385742 C10.07857909 44.33067752 8.95870745 44.87525528 5.46484375 44.84375 C4.16256836 44.83988281 4.16256836 44.83988281 2.83398438 44.8359375 C1.94001953 44.80757812 1.04605469 44.77921875 0.125 44.75 C-0.77283203 44.75257813 -1.67066406 44.75515625 -2.59570312 44.7578125 C-6.31874861 44.70245123 -9.0435863 44.65382643 -12.37109375 42.90625 C-16.47703148 38.18831613 -15.07586654 30.55155069 -15.10766602 24.62646484 C-15.11919518 23.12897296 -15.13966217 21.63152248 -15.16918945 20.13427734 C-15.211927 17.96683932 -15.2280411 15.80061987 -15.23828125 13.6328125 C-15.25286377 12.33746582 -15.26744629 11.04211914 -15.2824707 9.70751953 C-14.73714004 5.69558556 -13.64274553 4.08386771 -10.8125 1.25 C-7.44936091 -0.43156955 -3.69483413 0.02325623 0 0 Z " fill="#050303" transform="translate(398.8125,114.75)"/>
<path d="M0 0 C0 17.16 0 34.32 0 52 C-8.0923237 52 -12.10304306 50.52832588 -18.0234375 45.16796875 C-23.39766251 39.41958883 -26.04790864 33.93955027 -26.4375 26.0625 C-26.16729528 18.40278353 -22.83642424 12.09090618 -17.703125 6.50390625 C-12.69463094 2.08126815 -6.66745932 0 0 0 Z " fill="#F5CDB1" transform="translate(97,152)"/>
<path d="M0 0 C8.88599547 1.11074943 14.76356586 2.72181044 20.375 9.875 C24.98567683 16.7397855 27.11537142 22.73611175 26 31 C24.13771065 37.69537362 20.32074844 43.53581144 15 48 C9.86765653 50.84684677 5.89875409 52 0 52 C0 34.84 0 17.68 0 0 Z " fill="#F5CDB1" transform="translate(256,152)"/>
<path d="M0 0 C19.14 0 38.28 0 58 0 C58 5.94 58 11.88 58 18 C38.86 18 19.72 18 0 18 C0 12.06 0 6.12 0 0 Z " fill="#386DBA" transform="translate(393,428)"/>
<path d="M0 0 C19.14 0 38.28 0 58 0 C58 5.61 58 11.22 58 17 C38.86 17 19.72 17 0 17 C0 11.39 0 5.78 0 0 Z " fill="#4F8CD5" transform="translate(393,456)"/>
<path d="M0 0 C19.14 0 38.28 0 58 0 C58 5.61 58 11.22 58 17 C38.86 17 19.72 17 0 17 C0 11.39 0 5.78 0 0 Z " fill="#4F8CD5" transform="translate(393,401)"/>
<path d="M0 0 C1.4783226 2.95664519 1.06032783 5.74229737 1 9 C2.8871875 9.1546875 2.8871875 9.1546875 4.8125 9.3125 C7.27135361 9.6388965 8.82493061 9.90152347 11 11.125 C12.61516686 14.15343786 12.3593084 16.64645493 12 20 C11 21.9375 11 21.9375 9 23 C6.28117977 23.23595284 3.74042978 23.13477523 1 23 C1.061875 24.258125 1.12375 25.51625 1.1875 26.8125 C1.16934383 29.37705844 1.1515987 30.71463773 -0.0625 33 C-3.13215135 34.58433618 -5.61681143 34.36248449 -9 34 C-10.9375 33 -10.9375 33 -12 31 C-12.23595284 28.28117977 -12.13477523 25.74042978 -12 23 C-13.258125 23.061875 -14.51625 23.12375 -15.8125 23.1875 C-18.37705844 23.16934383 -19.71463773 23.1515987 -22 21.9375 C-23.56646819 18.90246787 -23.2989878 16.34866332 -23 13 C-21 10 -21 10 -18.8359375 9.48828125 C-18.02382813 9.43027344 -17.21171875 9.37226563 -16.375 9.3125 C-15.55773438 9.24675781 -14.74046875 9.18101562 -13.8984375 9.11328125 C-13.27195312 9.07589844 -12.64546875 9.03851563 -12 9 C-12.103125 7.741875 -12.20625 6.48375 -12.3125 5.1875 C-12.29871765 1.3077697 -12.29871765 1.3077697 -9.9375 -1.125 C-6.00146472 -2.29743604 -3.75724105 -1.51734735 0 0 Z " fill="#F5C84C" transform="translate(67,243)"/>
<path d="M0 0 C19.8 0 39.6 0 60 0 C60 3.3 60 6.6 60 10 C40.2 10 20.4 10 0 10 C0 6.7 0 3.4 0 0 Z " fill="#6CCFF1" transform="translate(394,87)"/>
<path d="M0 0 C5.39049333 0.74645949 8.85590461 5.72069527 12.54248047 9.43188477 C13.43451172 10.27944336 14.32654297 11.12700195 15.24560547 12.00024414 C21.4933686 18.22397742 21.4933686 18.22397742 22.21435547 22.96704102 C20.00494916 27.82661904 16.84937896 31.05963275 13.04248047 34.74438477 C12.34251953 35.46754883 11.64255859 36.19071289 10.92138672 36.93579102 C5.08955187 42.70270748 5.08955187 42.70270748 0.76904297 43.47094727 C-2.33251953 43.36938477 -2.33251953 43.36938477 -4.33251953 41.36938477 C-4.33789137 36.93761882 -3.59447198 34.25616897 -0.60986328 31.06079102 C0.48838331 30.00200238 1.60218692 28.95914358 2.72998047 27.93188477 C3.2978125 27.39112305 3.86564453 26.85036133 4.45068359 26.29321289 C5.84297885 24.9711174 7.25346887 23.668228 8.66748047 22.36938477 C5.52016912 18.60796388 2.41551783 15.11262965 -1.20751953 11.80688477 C-3.74408325 9.32071635 -4.27667172 8.69826634 -4.89501953 5.05688477 C-4.18644501 1.67147316 -3.47852624 0.55086981 0 0 Z " fill="#040709" transform="translate(443.33251953125,255.630615234375)"/>
<path d="M0 0 C2 2 2 2 2.53125 4.6953125 C1.7527897 9.53779346 -0.98433906 11.64439265 -4.5 14.875 C-5.12003906 15.46796875 -5.74007813 16.0609375 -6.37890625 16.671875 C-7.90606773 18.12855211 -9.45133343 19.56620705 -11 21 C-7.85268865 24.76142088 -4.74803736 28.25675511 -1.125 31.5625 C1.41156372 34.04866841 1.94415218 34.67111842 2.5625 38.3125 C2 41 2 41 0 43 C-3.28274256 43.52555462 -4.59006801 43.29520818 -7.31176758 41.33520508 C-8.08157959 40.57103271 -8.8513916 39.80686035 -9.64453125 39.01953125 C-10.48564453 38.18486328 -11.32675781 37.35019531 -12.19335938 36.49023438 C-13.05767578 35.60658203 -13.92199219 34.72292969 -14.8125 33.8125 C-15.69615234 32.94818359 -16.57980469 32.08386719 -17.49023438 31.19335938 C-18.32490234 30.35224609 -19.15957031 29.51113281 -20.01953125 28.64453125 C-20.78370361 27.87471924 -21.54787598 27.10490723 -22.33520508 26.31176758 C-24 24 -24 24 -24.49755859 21.5 C-23.82837586 18.13766871 -22.42554545 16.77923952 -20.01953125 14.35546875 C-18.7675293 13.09379883 -18.7675293 13.09379883 -17.49023438 11.80664062 C-16.16475586 10.51016602 -16.16475586 10.51016602 -14.8125 9.1875 C-13.94818359 8.30384766 -13.08386719 7.42019531 -12.19335938 6.50976562 C-11.35224609 5.67509766 -10.51113281 4.84042969 -9.64453125 3.98046875 C-8.48981323 2.83421021 -8.48981323 2.83421021 -7.31176758 1.66479492 C-4.59006801 -0.29520818 -3.28274256 -0.52555462 0 0 Z " fill="#010304" transform="translate(403,256)"/>
<path d="M0 0 C4.21084888 0.70180815 6.31661147 2.46053087 9.54296875 5.15234375 C14.28237923 8.80037612 20.71368442 8.19382246 26.375 7.5625 C30.90544443 5.95007091 34.95845026 3.97904974 38.375 0.5625 C41.375 0.25 41.375 0.25 44.375 0.5625 C46.375 3.5625 46.375 3.5625 46.4375 5.875 C44.23670506 11.44171662 39.12893527 14.45525679 33.875 16.9375 C25.63590161 19.92668509 16.11409839 19.92668509 7.875 16.9375 C2.62106473 14.45525679 -2.48670506 11.44171662 -4.6875 5.875 C-4.58914936 2.23602641 -3.56002865 0.76286328 0 0 Z " fill="#070605" transform="translate(156.625,218.4375)"/>
<path d="M0 0 C3 0.25 3 0.25 5 2.25 C5.60971778 7.60738687 4.00039645 12.06514273 2.3125 17.0625 C1.76015096 18.74818501 1.20940364 20.43439558 0.66015625 22.12109375 C0.38187988 22.97171387 0.10360352 23.82233398 -0.18310547 24.69873047 C-1.67125572 29.34642029 -3.01185283 34.03713227 -4.3503418 38.72973633 C-6.54674073 46.34348147 -6.54674073 46.34348147 -8 49.25 C-11.11271935 50.30964914 -12.92610216 50.76962799 -15.9375 49.3125 C-18.41390208 44.50536656 -15.87034468 38.60501521 -14.375 33.75 C-14.024375 32.66074219 -13.67375 31.57148438 -13.3125 30.44921875 C-12.22367389 27.03276676 -11.23048425 23.59358447 -10.25 20.14453125 C-9.94143066 19.06300781 -9.63286133 17.98148437 -9.31494141 16.8671875 C-8.69276348 14.67970687 -8.07518041 12.49091365 -7.46240234 10.30078125 C-7.17316895 9.29015625 -6.88393555 8.27953125 -6.5859375 7.23828125 C-6.3286084 6.32602783 -6.0712793 5.41377441 -5.80615234 4.47387695 C-4.55325855 1.01760513 -3.68719824 0.30726652 0 0 Z " fill="#030708" transform="translate(428,252.75)"/>
<path d="M0 0 C0.66 0 1.32 0 2 0 C2.30292969 0.67546875 2.60585938 1.3509375 2.91796875 2.046875 C6.22314516 9.08435832 8.9276114 12.90265739 16.3125 15.75 C17.529375 16.1625 18.74625 16.575 20 17 C20 17.66 20 18.32 20 19 C18.78763672 19.51046875 18.78763672 19.51046875 17.55078125 20.03125 C10.63244837 23.16911871 5.88653007 25.76169618 3 33 C2.6374027 34.3256742 2.29529927 35.65773057 2 37 C1.34 37 0.68 37 0 37 C-0.268125 36.34773438 -0.53625 35.69546875 -0.8125 35.0234375 C-4.27659417 27.29759589 -8.31488179 23.14734585 -16 19.625 C-16.66 19.41875 -17.32 19.2125 -18 19 C-18 18.34 -18 17.68 -18 17 C-17.41992188 16.79246094 -16.83984375 16.58492187 -16.2421875 16.37109375 C-7.85818897 13.06453327 -3.61825024 8.24157 0 0 Z " fill="#6FD6F9" transform="translate(290,31)"/>
<path d="M0 0 C0.7437085 0.00217529 1.48741699 0.00435059 2.25366211 0.0065918 C4.52116059 0.00974886 6.78735072 -0.01369197 9.0546875 -0.0390625 C10.49413898 -0.04133579 11.93359397 -0.04203885 13.37304688 -0.04101562 C14.68523193 -0.04399658 15.99741699 -0.04697754 17.34936523 -0.05004883 C20.59570312 0.32226562 20.59570312 0.32226562 22.52758789 1.68481445 C24.03978682 4.00305861 23.94273499 5.61541705 23.59570312 8.32226562 C21.14475159 10.77321716 19.76240131 10.57677989 16.41468811 10.62580872 C15.71258713 10.62489731 15.01048615 10.6239859 14.28710938 10.62304688 C13.20332253 10.62947456 13.20332253 10.62947456 12.09764099 10.6360321 C10.56860401 10.641778 9.03953968 10.64227374 7.51049805 10.63793945 C5.17058639 10.63478233 2.83194246 10.65822321 0.4921875 10.68359375 C-0.99283694 10.68586702 -2.47786479 10.68657011 -3.96289062 10.68554688 C-4.66296738 10.69475662 -5.36304413 10.70396637 -6.08433533 10.7134552 C-8.99205856 10.68576175 -10.94886622 10.63617923 -13.38110352 8.9597168 C-14.40429688 7.32226562 -14.40429688 7.32226562 -14.21679688 4.75976562 C-12.04083299 -1.76812602 -5.77277623 0.02238055 0 0 Z " fill="#080505" transform="translate(437.404296875,148.677734375)"/>
<path d="M0 0 C0.7437085 0.00217529 1.48741699 0.00435059 2.25366211 0.0065918 C4.52116059 0.00974886 6.78735072 -0.01369197 9.0546875 -0.0390625 C10.49413898 -0.04133579 11.93359397 -0.04203885 13.37304688 -0.04101562 C14.68523193 -0.04399658 15.99741699 -0.04697754 17.34936523 -0.05004883 C20.59570312 0.32226562 20.59570312 0.32226562 22.52758789 1.68481445 C24.03978682 4.00305861 23.94273499 5.61541705 23.59570312 8.32226562 C21.14475159 10.77321716 19.76240131 10.57677989 16.41468811 10.62580872 C15.71258713 10.62489731 15.01048615 10.6239859 14.28710938 10.62304688 C13.20332253 10.62947456 13.20332253 10.62947456 12.09764099 10.6360321 C10.56860401 10.641778 9.03953968 10.64227374 7.51049805 10.63793945 C5.17058639 10.63478233 2.83194246 10.65822321 0.4921875 10.68359375 C-0.99283694 10.68586702 -2.47786479 10.68657011 -3.96289062 10.68554688 C-4.66296738 10.69475662 -5.36304413 10.70396637 -6.08433533 10.7134552 C-8.99205856 10.68576175 -10.94886622 10.63617923 -13.38110352 8.9597168 C-14.40429688 7.32226562 -14.40429688 7.32226562 -14.21679688 4.75976562 C-12.04083299 -1.76812602 -5.77277623 0.02238055 0 0 Z " fill="#080505" transform="translate(437.404296875,131.677734375)"/>
<path d="M0 0 C0.7437085 0.00217529 1.48741699 0.00435059 2.25366211 0.0065918 C4.52116059 0.00974886 6.78735072 -0.01369197 9.0546875 -0.0390625 C10.49413898 -0.04133579 11.93359397 -0.04203885 13.37304688 -0.04101562 C14.68523193 -0.04399658 15.99741699 -0.04697754 17.34936523 -0.05004883 C20.59570312 0.32226562 20.59570312 0.32226562 22.52758789 1.68481445 C24.03978682 4.00305861 23.94273499 5.61541705 23.59570312 8.32226562 C21.14475159 10.77321716 19.76240131 10.57677989 16.41468811 10.62580872 C15.71258713 10.62489731 15.01048615 10.6239859 14.28710938 10.62304688 C13.20332253 10.62947456 13.20332253 10.62947456 12.09764099 10.6360321 C10.56860401 10.641778 9.03953968 10.64227374 7.51049805 10.63793945 C5.17058639 10.63478233 2.83194246 10.65822321 0.4921875 10.68359375 C-0.99283694 10.68586702 -2.47786479 10.68657011 -3.96289062 10.68554688 C-4.66296738 10.69475662 -5.36304413 10.70396637 -6.08433533 10.7134552 C-8.99205856 10.68576175 -10.94886622 10.63617923 -13.38110352 8.9597168 C-14.40429688 7.32226562 -14.40429688 7.32226562 -14.21679688 4.75976562 C-12.04083299 -1.76812602 -5.77277623 0.02238055 0 0 Z " fill="#080505" transform="translate(437.404296875,114.677734375)"/>
<path d="M0 0 C0.7437085 0.00217529 1.48741699 0.00435059 2.25366211 0.0065918 C4.52116059 0.00974886 6.78735072 -0.01369197 9.0546875 -0.0390625 C10.49413898 -0.04133579 11.93359397 -0.04203885 13.37304688 -0.04101562 C14.68523193 -0.04399658 15.99741699 -0.04697754 17.34936523 -0.05004883 C20.59570312 0.32226562 20.59570312 0.32226562 22.55883789 1.6496582 C23.59570312 3.32226562 23.59570312 3.32226562 23.40820312 6.44726562 C23.14007813 7.39601563 22.87195313 8.34476562 22.59570312 9.32226562 C18.09678306 11.57172566 11.94367876 10.5494849 6.93774414 10.5625 C4.67036364 10.57221353 2.40388674 10.60323955 0.13671875 10.63476562 C-1.30272899 10.64129505 -2.74218321 10.64654576 -4.18164062 10.65039062 C-5.49382568 10.65973633 -6.80601074 10.66908203 -8.15795898 10.67871094 C-11.40429688 10.32226562 -11.40429688 10.32226562 -13.36743164 8.96191406 C-14.40429688 7.32226562 -14.40429688 7.32226562 -14.21679688 4.75976562 C-12.04083299 -1.76812602 -5.77277623 0.02238055 0 0 Z " fill="#020202" transform="translate(171.404296875,399.677734375)"/>
<path d="M0 0 C2.8100346 1.79363911 4.50940468 3.01880935 6 6 C6.12150428 10.49565838 5.80266747 13.9715823 3 17.5625 C-1.10346073 19.5287416 -4.5305611 19.79363868 -9 19 C-11.89115314 17.33758695 -12.69207311 16.08584747 -13.59375 12.90625 C-14.31784262 8.7287926 -14.42885043 6.7098214 -12.1875 3 C-8.4620862 -0.40609262 -4.91281441 -0.70586414 0 0 Z " fill="#050404" transform="translate(148,172)"/>
<path d="M0 0 C2.8100346 1.79363911 4.50940468 3.01880935 6 6 C6.0407792 10.22472472 5.64803461 13.89294087 3.5 17.5625 C-0.30707837 19.75157006 -3.72017848 19.72474696 -8 19 C-11 17.5625 -11 17.5625 -13 15 C-13.9648449 11.93990019 -14.30775495 9.19723195 -14 6 C-10.48028041 0.17425724 -6.63382773 -0.95313617 0 0 Z " fill="#050403" transform="translate(215,172)"/>
<path d="M0 0 C0.66 0 1.32 0 2 0 C2.391875 1.0725 2.78375 2.145 3.1875 3.25 C5.35206208 8.30404826 9.05791948 10.80351977 14 13 C13 15 13 15 10.1875 16.3125 C5.51300872 18.78723068 3.12070939 22.22840388 1 27 C-1 25 -1 25 -2.625 21.625 C-5.01546949 17.25463783 -8.49255696 15.76140371 -13 14 C-11.48065294 10.96130589 -9.01995228 10.35589694 -6 9 C-5.34 9 -4.68 9 -4 9 C-2.47700477 6.06279492 -1.19899698 3.0831351 0 0 Z " fill="#F5C84B" transform="translate(333,210)"/>
<path d="M0 0 C3.3 0 6.6 0 10 0 C10 7.92 10 15.84 10 24 C6.7 24 3.4 24 0 24 C0 16.08 0 8.16 0 0 Z " fill="#EDC249" transform="translate(394,125)"/>
<path d="M0 0 C1.875 1.125 1.875 1.125 3 3 C3.5 6.4375 3.5 6.4375 3 10 C0.9375 12.5 0.9375 12.5 -2 14 C-5.6875 13.9375 -5.6875 13.9375 -9 13 C-11.45811625 9.31282562 -11.31118164 7.35654296 -11 3 C-7.86479876 -1.70280187 -5.14918858 -1.28729714 0 0 Z " fill="#88D145" transform="translate(31,299)"/>
<path d="M0 0 C2 1.0625 2 1.0625 3 3 C3.50030235 6.93094707 3.5996142 9.1005787 1.375 12.4375 C-1.69817115 14.45932313 -3.38247881 14.52755517 -7 14 C-9.375 13 -9.375 13 -11 11 C-11.65964122 7.44238446 -11.63041883 4.26083766 -10 1 C-6.7413581 -0.62932095 -3.56102656 -0.52673518 0 0 Z " fill="#FC647D" transform="translate(255,0)"/>
<path d="M0 0 C1.5027237 0.97498145 3.00211963 1.95509389 4.5 2.9375 C5.3353125 3.48277344 6.170625 4.02804687 7.03125 4.58984375 C8.00578125 5.28787109 8.00578125 5.28787109 9 6 C9 6.33 9 6.66 9 7 C3.72 7 -1.56 7 -7 7 C-4.66666667 4.66666667 -2.33333333 2.33333333 0 0 Z " fill="#4D87CD" transform="translate(214,303)"/>
<path d="M0 0 C1.33617352 0.97528737 2.6688751 1.95533319 4 2.9375 C5.11375 3.75541016 5.11375 3.75541016 6.25 4.58984375 C6.8275 5.05519531 7.405 5.52054687 8 6 C8 6.33 8 6.66 8 7 C2.72 7 -2.56 7 -8 7 C-6.35 5.68 -4.7 4.36 -3 3 C-1.9826127 2.01769502 -0.97403883 1.02530403 0 0 Z " fill="#4D88CF" transform="translate(138,303)"/>
</svg>
