<svg id="svg" version="1.1" xmlns="http://www.w3.org/2000/svg" xmlns:xlink="http://www.w3.org/1999/xlink" width="400" height="400" viewBox="0, 0, 400,400"><g id="svgg"><path id="path0" d="M86.328 200.195 L 86.328 301.172 100.194 301.172 L 114.061 301.172 114.159 220.218 L 114.258 139.265 118.778 145.707 C 121.265 149.250,126.099 156.054,129.520 160.827 C 132.942 165.601,136.876 171.138,138.262 173.132 C 139.647 175.126,144.203 181.592,148.386 187.500 C 152.568 193.408,156.444 198.898,156.999 199.699 C 157.554 200.500,158.113 201.159,158.241 201.164 C 158.369 201.168,169.707 185.440,183.436 166.212 C 205.106 135.863,208.463 131.339,208.886 131.910 C 209.153 132.272,210.806 135.216,212.557 138.452 C 226.420 164.069,236.839 182.963,259.852 224.219 C 271.151 244.474,274.880 251.132,280.088 260.352 C 289.824 277.588,291.406 280.424,291.406 280.637 C 291.406 280.759,288.181 280.859,284.240 280.859 L 277.073 280.859 268.265 265.527 C 263.421 257.095,255.947 243.955,251.657 236.328 C 247.366 228.701,240.380 216.309,236.130 208.789 C 227.165 192.923,219.810 179.855,218.433 177.344 C 217.903 176.377,216.724 174.268,215.814 172.656 C 214.903 171.045,212.802 167.302,211.144 164.338 L 208.130 158.950 202.111 167.463 C 198.802 172.146,195.215 177.176,194.140 178.641 L 192.187 181.306 192.188 241.239 L 192.188 301.172 206.055 301.172 L 219.922 301.172 219.922 257.930 L 219.922 214.689 225.819 225.020 C 229.063 230.702,232.115 236.055,232.601 236.914 C 233.088 237.773,237.400 245.332,242.184 253.711 C 246.968 262.090,252.377 271.582,254.204 274.805 C 256.030 278.027,260.154 285.278,263.368 290.918 L 269.211 301.172 291.396 301.172 L 313.580 301.172 313.648 200.195 L 313.715 99.219 298.851 99.219 L 283.987 99.219 283.888 153.469 L 283.789 207.719 278.664 198.098 C 275.845 192.806,269.413 180.742,264.370 171.289 C 247.860 140.338,244.079 133.219,235.118 116.211 L 226.268 99.414 210.468 99.312 L 194.668 99.210 192.714 102.046 C 191.639 103.606,187.599 109.453,183.734 115.039 C 174.365 128.583,167.441 138.667,162.145 146.484 C 159.743 150.029,157.654 152.966,157.502 153.011 C 157.351 153.055,155.029 149.839,152.344 145.863 C 149.658 141.886,146.391 137.104,145.083 135.234 C 141.732 130.446,127.051 109.301,123.273 103.822 L 120.117 99.245 103.223 99.232 L 86.328 99.219 86.328 200.195 " stroke="none" fill="#0c0c0c" fill-rule="evenodd"></path><path id="path1" d="M0.000 200.000 L 0.000 400.000 200.000 400.000 L 400.000 400.000 400.000 200.000 L 400.000 0.000 200.000 0.000 L 0.000 0.000 0.000 200.000 M123.536 104.004 C 125.337 106.636,131.270 115.205,136.721 123.047 C 142.171 130.889,149.076 140.872,152.065 145.233 L 157.500 153.161 161.545 147.186 C 163.770 143.900,166.142 140.420,166.816 139.453 C 167.490 138.486,169.965 134.883,172.314 131.445 C 179.700 120.641,189.549 106.367,192.134 102.723 L 194.619 99.219 210.493 99.225 L 226.367 99.231 229.844 105.963 C 231.756 109.666,238.368 122.188,244.536 133.789 C 250.705 145.391,258.881 160.771,262.706 167.969 C 266.530 175.166,270.045 181.758,270.516 182.617 C 271.464 184.346,280.329 200.985,282.566 205.235 L 283.984 207.930 283.984 153.574 L 283.984 99.219 298.828 99.219 L 313.672 99.219 313.672 200.391 L 313.672 301.563 291.486 301.563 L 269.301 301.563 262.352 289.355 C 258.530 282.642,247.464 263.225,237.760 246.208 L 220.117 215.268 220.018 258.415 L 219.918 301.563 206.053 301.563 L 192.188 301.563 192.188 241.412 L 192.188 181.262 200.014 170.221 C 204.319 164.148,207.967 159.143,208.120 159.098 C 208.273 159.053,211.826 165.186,216.016 172.726 C 223.272 185.785,225.571 189.889,231.627 200.586 C 233.086 203.164,239.333 214.238,245.507 225.195 C 257.932 247.242,266.107 261.635,272.578 272.852 L 276.860 280.273 284.035 280.469 C 287.982 280.576,291.258 280.647,291.315 280.625 C 291.372 280.604,288.982 276.298,286.004 271.055 C 280.358 261.115,277.945 256.826,270.313 243.164 C 247.385 202.124,241.448 191.444,230.681 171.875 C 219.210 151.026,217.923 148.672,213.077 139.648 C 210.769 135.352,208.804 131.751,208.710 131.646 C 208.472 131.381,209.133 130.472,187.245 161.133 C 176.356 176.387,166.113 190.713,164.482 192.969 C 162.852 195.225,160.904 197.989,160.154 199.111 C 158.594 201.443,158.106 201.603,157.144 200.098 C 156.767 199.507,153.391 194.717,149.642 189.453 C 145.894 184.189,140.866 177.070,138.468 173.633 C 136.071 170.195,130.333 162.109,125.716 155.664 C 121.099 149.219,116.633 142.906,115.790 141.635 L 114.258 139.326 114.159 220.444 L 114.061 301.563 99.999 301.563 L 85.938 301.563 85.938 200.391 L 85.938 99.219 103.099 99.219 L 120.261 99.219 123.536 104.004 " stroke="none" fill="#fbfbfb" fill-rule="evenodd"></path><path id="path2" d="M280.156 280.759 C 282.025 280.831,285.189 280.831,287.187 280.760 C 289.185 280.689,287.656 280.631,283.789 280.630 C 279.922 280.630,278.287 280.688,280.156 280.759 " stroke="none" fill="#9d9e9e" fill-rule="evenodd"></path><path id="path3" d="" stroke="none" fill="#7c7c7c" fill-rule="evenodd"></path><path id="path4" d="M86.130 200.391 C 86.130 255.498,86.175 278.042,86.230 250.488 C 86.286 222.935,86.286 177.847,86.230 150.293 C 86.175 122.739,86.130 145.283,86.130 200.391 M313.438 294.141 C 313.438 297.471,313.498 298.833,313.572 297.168 C 313.645 295.503,313.645 292.778,313.572 291.113 C 313.498 289.448,313.438 290.811,313.438 294.141 M86.274 301.275 C 86.438 301.439,92.802 301.526,100.415 301.470 L 114.258 301.367 100.117 301.172 C 92.339 301.064,86.110 301.111,86.274 301.275 M199.146 301.464 C 203.081 301.528,209.409 301.528,213.209 301.464 C 217.008 301.400,213.789 301.348,206.055 301.348 C 198.320 301.348,195.212 301.401,199.146 301.464 M280.371 301.465 C 286.440 301.525,296.372 301.525,302.441 301.465 C 308.511 301.404,303.545 301.355,291.406 301.355 C 279.268 301.355,274.302 301.404,280.371 301.465 " stroke="none" fill="#747c78" fill-rule="evenodd"></path></g></svg>